<svg width="179" height="291" viewBox="0 0 179 291" fill="none" xmlns="http://www.w3.org/2000/svg">
<path d="M91.0449 0C92.4888 1.60717 92.9631 3.41766 93.5211 5.45523C93.7348 6.20796 93.9486 6.96067 94.1624 7.71337C94.3292 8.30839 94.3292 8.30839 94.4993 8.91542C100.362 29.7651 107.621 49.9444 117.827 69.0943C118.859 71.0328 119.841 72.9921 120.808 74.9636C126.152 85.7579 132.621 95.9686 138.975 106.186C140.967 109.393 142.949 112.606 144.934 115.818C145.462 116.672 145.991 117.525 146.522 118.378C148.896 122.211 151.184 126.095 153.468 129.983C154.495 131.73 155.53 133.471 156.572 135.209C159.423 139.971 162.102 144.744 164.481 149.758C164.861 150.55 165.241 151.342 165.622 152.133C166.593 154.159 167.553 156.191 168.51 158.224C168.887 159.02 169.273 159.813 169.662 160.603C174.395 170.409 177.106 181.838 178.448 192.61C178.49 192.954 178.533 193.298 178.577 193.652C178.974 197.348 178.982 201.042 178.982 204.755C178.983 205.856 178.991 206.956 178.999 208.056C179.014 212.166 178.797 216.08 177.997 220.126C177.912 220.567 177.828 221.008 177.741 221.463C174.525 237.656 167.249 252.598 155.471 264.332C155.233 264.571 154.995 264.81 154.75 265.057C145.078 274.694 132.887 281.885 119.879 285.984C119.455 286.122 119.455 286.122 119.022 286.263C115.198 287.505 111.351 288.481 107.405 289.254C106.852 289.364 106.852 289.364 106.288 289.477C88.8032 292.728 67.8612 290.894 51.8489 282.826C51.4226 282.639 50.9963 282.453 50.5571 282.26C38.0645 276.786 26.2067 268.142 18.0592 257.115C17.7503 256.717 17.4413 256.32 17.123 255.911C14.5076 252.519 12.2197 248.982 10.0056 245.318C9.56806 244.598 9.12092 243.883 8.67202 243.17C4.62397 236.567 -0.492084 227.637 0.0380583 219.675C1.88391 221.333 2.88659 222.96 3.89571 225.229C7.38265 232.608 13.0169 238.547 18.7069 244.287C18.9844 244.567 19.2619 244.847 19.5479 245.136C19.8087 245.396 20.0695 245.656 20.3383 245.924C20.6888 246.274 20.6888 246.274 21.0465 246.632C21.6638 247.242 21.6638 247.242 22.5645 247.642C22.5645 247.94 22.5645 248.237 22.5645 248.544C22.7991 248.646 23.0338 248.749 23.2755 248.854C24.7605 249.66 26.0639 250.685 27.4077 251.702C38.0045 259.556 49.8432 264.844 62.6616 267.941C63.3716 268.127 63.3716 268.127 64.0959 268.318C84.1705 273.386 107.322 270.088 125.169 259.641C132.038 255.499 138.057 250.513 142.856 244.033C143.133 243.66 143.133 243.66 143.415 243.28C151.649 232.032 153.963 218.339 153.837 204.649C153.835 204.244 153.834 203.84 153.831 203.424C153.797 197.313 153.483 191.403 152.317 185.393C152.156 184.488 151.996 183.582 151.836 182.676C149.537 170.066 145.723 157.579 139.76 146.2C138.547 143.885 137.442 141.519 136.323 139.158C134.481 135.282 132.599 131.431 130.666 127.6C130.231 126.733 129.803 125.864 129.377 124.993C127.62 121.416 125.757 117.919 123.805 114.445C122.416 111.961 121.119 109.445 119.865 106.89C118.787 104.7 117.654 102.544 116.5 100.393C114.973 97.5368 113.555 94.6446 112.197 91.7045C111.338 89.8489 110.449 88.0157 109.518 86.1953C95.6787 59.0804 90.8562 30.1049 91.0449 0Z" fill="#DC4C1C"/>
<path d="M84.8716 23C85.1692 23 85.4668 23 85.7734 23C86.7856 55.7153 72.5497 87.2162 53.2551 113.041C40.0782 130.721 29.1542 152.085 24.8996 173.731C24.8377 174.044 24.7759 174.357 24.7122 174.679C21.9762 189.2 24.4863 205.261 32.7296 217.61C36.434 222.979 40.3372 227.779 45.7263 231.496C46.0624 231.729 46.3985 231.963 46.7449 232.203C50.856 235.033 54.8833 237.415 59.5938 239.115C60.7719 239.545 61.8894 240.032 63.0303 240.55C65.2708 241.452 67.5756 241.931 69.9349 242.411C70.302 242.486 70.6692 242.562 71.0474 242.64C80.1702 244.398 90.6387 244.658 99.7518 242.778C100.109 242.705 100.467 242.632 100.835 242.557C106.117 241.458 111.069 240.052 115.985 237.814C116.683 237.501 116.683 237.501 117.396 237.183C121.661 235.168 125.6 232.552 129.146 229.437C130.414 228.337 130.414 228.337 131.316 228.337C131.316 228.039 131.316 227.741 131.316 227.434C131.915 226.877 131.915 226.877 132.782 226.193C137.356 222.307 141.407 217.18 144.421 212.006C145.447 210.247 146.477 208.922 148 207.577C146.591 220.382 138.61 233.016 128.956 241.195C127.59 242.362 126.354 243.654 125.125 244.962C122.877 247.301 120.505 249.136 117.789 250.901C117.342 251.199 116.896 251.498 116.436 251.805C112.821 254.142 109.175 255.736 105.163 257.219C104.825 257.358 104.487 257.496 104.139 257.639C101.422 258.749 98.5619 259.338 95.6936 259.927C95.1887 260.043 95.1887 260.043 94.6735 260.162C90.7842 260.985 86.9108 261.009 82.9552 260.999C82.5968 260.998 82.2384 260.998 81.8692 260.998C75.8035 260.979 70.0343 260.494 64.1294 259.024C63.5227 258.876 63.5227 258.876 62.9037 258.724C42.7394 253.654 25.3111 241.605 14.5408 223.714C4.64629 206.775 2.78136 185.854 7.4065 166.949C12.9165 146.203 25.5497 129.316 38.2474 112.45C39.1081 111.302 39.9575 110.146 40.805 108.988C43.2218 105.687 45.6368 102.39 48.1782 99.1832C52.5268 93.6859 56.6138 88.1096 60.3582 82.1806C60.9718 81.218 61.5971 80.2643 62.2271 79.3124C73.2561 62.6139 82.1727 42.9491 84.8716 23Z" fill="#DC4C1C"/>
</svg>
